**ABCDEFGHIJKLMNOPQRSTUVWXYZabcdefghijklmnopqrstuvwxyz**************************
**PARASOLID !"#$%&'()*+,-./:;<=>?@[\]^_`{|}~0123456789**************************
**PART1;
MC=AMD64;
MC_MODEL=Intel64 Family 6 Model 94 Stepping 3, GenuineIntel;
MC_ID=unknown;
OS=Windows_NT;
OS_RELEASE=unknown;
FRU=Parasolid Version 34.1, build 254,  2-10-2023;
APPL=SOLIDWORKS 2023-2023205;
SITE=;
USER=unknown;
FORMAT=text;
GUISE=transmit;
KEY=makeProjectedPlanarWire;
FILE=makeProjectedPlanarWire.x_t;
DATE=Sun Oct 15 12:06:55 2023;
**PART2;
SCH=SCH_3401254_34101;
USFLD_SIZE=0;
**PART3;
**END_OF_HEADER*****************************************************************
T51 : TRANSMIT FILE created by modeller version 340125423 SCH_3401254_34101_1300
6231 0 12 36 CCCI7 lattice222 0 CCCI4 mesh1006 0 I8 polyline1008 0 CCCCCCCDI5 ow
ner1040 0 CCCI16 boundary_lattice222 0 CCCI13 boundary_mesh1006 0 I17 boundary_p
olyline1008 0 CCCA16 index_map_offset0 0 1 dA9 index_map82 0 A17 node_id_index_m
ap82 0 A20 schema_embedding_map82 0 A5 child12 0 A14 lowest_node_id0 0 1 dA16 me
sh_offset_data206 0 Z1 105 2 3 0 0 0 0 0 0 0 1e3 1e-8 0 4 0 1 0 3 1 5 0 6 7 8 0
 0 9 10 11 0 0 0 0 0 0 0 81 255 2 2 96 12 1 13 0 0 0 14 0 70 11 CI9 list_type0 0
 1 uI10 notransmit0 0 1 lCCCDCCDI12 finger_index0 0 1 dI12 finger_block1012 0 CZ
3 0 4 T1 0 0 3 20 1 15 15 13 255 5 101 0 1 0 16 0 0 9 16 50 255 6 3 0 16 0 0 0 +
0 .23 -.0061 0 1 0 0 0 1 30 255 7 50 0 10 17 0 0 -.0125753054963122 .23 -.002606
545723642955 .963397237854974 0 .2680779030308305 29 255 8 92 0 11 18 0 14951581
28934762e-21 .23 -.00610537318143453 19 9 CCCCCCI5 frame230 0 CA5 owner12 0 Z9 1
00 0 1 0 0 5 0 V0 16 255 10 48 0 ?19 0 20 7 0 0 1 18 255 11 90 0 21 0 22 8 ?1 17
 255 21 0 0 0 0 11 23 24 0 19 -18 22 87 0 25 11 26 18 ?1 17 25 0 27 19 28 22 29
 20 0 30 +18 26 84 0 28 22 31 32 ?1 29 18 89 0 22 32 8 .0125753054963122 .23 -.0
02606545723642955 29 32 86 0 26 33 18 .01257530549631218 .23 .002606545723642955
 29 33 83 0 31 34 32 1495158128938612e-21 .23 .00610537318143453 18 31 81 0 35 2
6 36 33 ?1 29 34 80 0 36 37 33 -149515812893471e-20 .23 .00610537318143453 18 36
 78 0 38 31 39 34 ?1 29 37 77 0 39 40 34 -.01257530549631216 .23 .00260654572364
296 18 39 75 0 41 36 42 37 ?1 29 40 74 0 42 43 37 -.01257530549631218 .23 -.0026
06545723642955 18 42 72 0 44 39 45 40 ?1 29 43 71 0 45 46 40 -1495158128921426e-
21 .23 -.00610537318143453 18 45 69 0 23 42 47 43 ?1 29 46 68 0 47 48 43 1225691
59099163e-32 .23 -.00454878426745981 18 47 66 0 49 45 50 46 ?1 29 48 65 0 50 51
 46 -.01217318481386686 .23 -.00116143611045852 18 50 63 0 52 47 53 48 ?1 29 51
 62 0 53 54 48 -.01217318481386684 .23 .00116143611045852 18 53 60 0 55 50 56 51
 ?1 29 54 59 0 56 57 51 2775812616786445e-33 .23 .00454878426745981 18 56 57 0 5
8 53 59 54 ?1 29 57 56 0 59 60 54 .01217318481386686 .23 .00116143611045852 18 5
9 54 0 61 56 62 57 ?1 29 60 53 0 62 0 57 .01217318481386686 .23 -.00116143611045
8516 18 62 51 0 63 59 0 60 ?1 17 63 0 64 61 65 62 49 66 0 67 -15 255 64 7 0 63 1
6 27 17 61 0 64 58 63 59 67 68 0 69 -17 65 0 64 63 52 47 70 71 0 0 -17 49 0 0 0
 0 47 63 66 0 65 +16 66 9 0 ?49 68 0 72 0 0 1 17 67 0 0 0 0 62 61 68 0 0 +16 68
 12 0 ?67 73 66 74 0 0 1 16 73 15 0 ?69 75 68 76 0 0 1 31 255 74 14 0 68 72 76 0
 +.01185 .23 0 0 1 0 0 0 1 .001205563047953598 30 72 11 0 66 0 74 0 -.0121731848
1386686 .23 -.001161436110458516 .963397237854974 0 .2680779030308305 30 76 17 0
 73 74 77 0 --.0004006255243163815 .23 .00466026356825009 -.963397237854974 0 .2
680779030308305 30 77 20 0 75 76 78 0 --.01217318481386684 .23 .0011614361104585
2 -.963397237854974 0 -.2680779030308305 16 75 18 0 ?79 80 73 77 0 0 1 31 78 23
 0 80 77 81 0 +-.01185 .23 0 0 1 0 0 0 1 .001205563047953598 16 80 21 0 ?82 71 7
5 78 0 0 1 30 81 26 0 71 78 83 0 -.0004006255243163985 .23 -.00466026356825009 .
963397237854974 0 -.2680779030308305 16 71 24 0 ?70 24 80 81 0 0 1 31 83 29 0 24
 81 84 0 +0 .23 -.0061 0 1 0 0 0 1 55773270084211e-19 16 24 27 0 ?23 85 71 83 0
 0 1 30 84 32 0 85 83 86 0 --1495158128921372e-21 .23 -.00610537318143453 .96339
7237854974 0 -.2680779030308305 16 85 30 0 ?44 87 24 84 0 0 1 31 86 35 0 87 84 8
8 0 +-.01185 .23 0 0 1 0 0 0 1 .00270557732700842 16 87 33 0 ?41 89 85 86 0 0 1
 30 88 38 0 89 86 90 0 --.01257530549631216 .23 .00260654572364296 -.96339723785
4974 0 -.2680779030308305 16 89 36 0 ?38 91 87 88 0 0 1 31 90 41 0 91 88 92 0 +0
 .23 .0061 0 1 0 0 0 1 55773270084211e-19 16 91 39 0 ?35 93 89 90 0 0 1 30 92 44
 0 93 90 17 0 -1495158128938558e-21 .23 .00610537318143453 -.963397237854974 0 .
2680779030308305 16 93 42 0 ?28 20 91 92 0 0 1 31 17 47 0 20 92 7 0 +.01185 .23
 0 0 1 0 0 0 1 .00270557732700842 16 20 45 0 ?25 10 93 17 0 0 1 17 28 0 27 25 35
 26 94 93 0 29 +15 27 8 0 23 16 0 17 35 0 27 28 38 31 95 91 0 94 +17 94 0 0 0 0
 31 28 93 0 0 -17 29 0 0 0 0 26 25 20 0 0 -17 38 0 27 35 41 36 96 89 0 95 +17 95
 0 0 0 0 36 35 91 0 0 -17 41 0 27 38 44 39 97 87 0 96 +17 96 0 0 0 0 39 38 89 0
 0 -17 44 0 27 41 23 42 98 85 0 97 +17 97 0 0 0 0 42 41 87 0 0 -17 23 0 27 44 19
 45 21 24 0 98 +17 98 0 0 0 0 45 44 85 0 0 -17 19 0 27 23 25 11 30 10 0 0 +17 30
 0 0 0 0 22 19 10 0 0 -14 255 16 1 99 ?0 0 64 5 6 +0 0 0 0 5 81 1 99 105 100 16
 0 0 0 0 101 80 7 CCCCCDI12 legal_owners0 16 1 lCZ1 100 102 103 9000 1 1 1 1 1 1
 1 1 0 FFFFTFTFFFFFFFFF1 82 255 1 101 239009927 79 255 14 103 SWEntUnchanged17 7
0 0 0 0 0 50 65 71 0 0 +17 82 0 0 0 0 53 52 80 0 0 +17 52 0 64 65 55 50 82 80 0
 70 -17 55 0 64 52 58 53 79 75 0 82 -17 58 0 64 55 61 56 69 73 0 79 -17 79 0 0 0
 0 56 55 75 0 0 +17 69 0 0 0 0 59 58 73 0 0 +74 4 CI16 index_map_offset0 0 1 dCC
Z20 15 3 0 0 13 2 99 0 0 0 0 0 0 0 0 0 0 0 0 0 0 0 0 0 81 2 13 93 104 1 0 2 0 0
 105 0 80 2 104 106 107 8004 0 0 0 0 3 5 0 0 0 FFTFFFFFFFFFFFFF2 3 83 255 1 105
 1 79 16 107 SDL/TYSA_DENSITY80 2 12 108 109 9000 0 0 0 0 3 5 0 0 0 FFTFTTTFFTFF
FFFF10 10 98 255 6 14 83 104 101 108 108 49 79 23 109 SWIMPLICITBODYNAME_ID_U1 0
 
